<svg width="129" height="20" viewBox="0 0 129 20" fill="none" xmlns="http://www.w3.org/2000/svg">
<path d="M6.32812 19.0176L2.36719 4.19336L0.621094 4.01758V1.95508H7.48828V4.01758L5.64844 4.28711L7.65234 12.584L8.01562 14.1074H8.08594L8.51953 12.584L11.8945 1.95508H14.4141L17.918 12.877L18.3281 14.2246H18.3984L18.75 12.877L20.8242 4.28711L18.8789 4.01758V1.95508H25.6172V4.01758L23.9883 4.19336L19.9805 19.0176H16.8867L13.6523 9.04492L13.2422 7.63867H13.1719L12.7148 9.0918L9.44531 19.0176H6.32812Z" fill="#262D33"/>
<path d="M26.6602 19.0176V16.9668L28.3125 16.6152V8.75195L26.4844 8.40039V6.33789H31.7344V16.6152L33.375 16.9668V19.0176H26.6602ZM28.1953 3.6543V0.736328H31.7344V3.6543H28.1953Z" fill="#262D33"/>
<path d="M34.3359 19.0176V16.9668L35.9883 16.6152V3.15039L34.1602 2.79883V0.736328H39.4102V16.6152L41.0625 16.9668V19.0176H34.3359Z" fill="#262D33"/>
<path d="M42 19.0176V16.9668L43.6523 16.6152V3.15039L41.8242 2.79883V0.736328H47.0742V16.6152L48.7266 16.9668V19.0176H42Z" fill="#262D33"/>
<path d="M57.2812 19.2637C56.4922 19.2637 55.8203 19.1113 55.2656 18.8066C54.7109 18.4941 54.2461 18.0449 53.8711 17.459L53.625 19.0176H50.6719V3.15039L48.8555 2.79883V0.736328H54.082V7.68555C54.4492 7.17773 54.8984 6.78711 55.4297 6.51367C55.9688 6.24023 56.5938 6.10352 57.3047 6.10352C58.8438 6.10352 60.0273 6.71289 60.8555 7.93164C61.6914 9.14258 62.1094 10.7598 62.1094 12.7832V13.0293C62.1094 14.9199 61.6914 16.4316 60.8555 17.5645C60.0195 18.6973 58.8281 19.2637 57.2812 19.2637ZM56.2383 16.6035C57.1133 16.6035 57.7422 16.2949 58.125 15.6777C58.5078 15.0527 58.6992 14.1699 58.6992 13.0293V12.7832C58.6992 11.5488 58.5039 10.5723 58.1133 9.85352C57.7305 9.12695 57.1172 8.76367 56.2734 8.76367C55.7578 8.76367 55.3164 8.88477 54.9492 9.12695C54.582 9.36914 54.293 9.69727 54.082 10.1113V15.4082C54.5586 16.2051 55.2773 16.6035 56.2383 16.6035Z" fill="#262D33"/>
<path d="M69.9375 19.2637C68.7188 19.2637 67.6562 18.998 66.75 18.4668C65.8516 17.9277 65.1523 17.1895 64.6523 16.252C64.1602 15.3145 63.9141 14.2441 63.9141 13.041V12.5723C63.9141 11.3145 64.1484 10.2012 64.6172 9.23242C65.0859 8.25586 65.7461 7.49023 66.5977 6.93555C67.457 6.37305 68.4688 6.0957 69.6328 6.10352C71.3438 6.10352 72.6523 6.60742 73.5586 7.61523C74.4648 8.61523 74.918 10.0215 74.918 11.834V13.6973H67.4648L67.4414 13.7676C67.5039 14.6035 67.7812 15.291 68.2734 15.8301C68.7656 16.3691 69.4648 16.6387 70.3711 16.6387C70.9961 16.6387 71.5781 16.5605 72.1172 16.4043C72.6641 16.2402 73.1953 16.002 73.7109 15.6895L74.6367 17.7988C74.1133 18.2207 73.4531 18.5723 72.6562 18.8535C71.8672 19.127 70.9609 19.2637 69.9375 19.2637ZM67.4883 11.4355H71.7188V11.1309C71.7188 10.3652 71.5586 9.75977 71.2383 9.31445C70.9258 8.86133 70.4102 8.63477 69.6914 8.63477C69.0039 8.63477 68.4805 8.89648 68.1211 9.41992C67.7617 9.93555 67.5391 10.5879 67.4531 11.377L67.4883 11.4355Z" fill="#262D33"/>
<path d="M76.7578 19.0176V16.9668L78.3984 16.6152V8.75195L76.582 8.40039V6.33789H81.5859L81.7148 7.9082L81.7383 8.18945C82.3633 6.79883 83.3008 6.10352 84.5508 6.10352C84.7539 6.10352 84.9727 6.11914 85.207 6.15039C85.4492 6.18164 85.668 6.22852 85.8633 6.29102L85.5 9.44336L83.8008 9.34961C83.3164 9.32617 82.9219 9.4082 82.6172 9.5957C82.3203 9.7832 82.0547 10.0527 81.8203 10.4043V16.6152L83.4609 16.9668V19.0176H76.7578Z" fill="#262D33"/>
<path d="M87.1406 19.0176V16.9668L88.7812 16.6152V8.75195L86.9648 8.40039V6.33789H91.9688L92.0977 7.9082L92.1211 8.18945C92.7461 6.79883 93.6836 6.10352 94.9336 6.10352C95.1367 6.10352 95.3555 6.11914 95.5898 6.15039C95.832 6.18164 96.0508 6.22852 96.2461 6.29102L95.8828 9.44336L94.1836 9.34961C93.6992 9.32617 93.3047 9.4082 93 9.5957C92.7031 9.7832 92.4375 10.0527 92.2031 10.4043V16.6152L93.8438 16.9668V19.0176H87.1406Z" fill="#262D33"/>
<path d="M97.3242 19.0176V16.9668L98.9766 16.6152V8.75195L97.1484 8.40039V6.33789H102.398V16.6152L104.039 16.9668V19.0176H97.3242ZM98.8594 3.6543V0.736328H102.398V3.6543H98.8594Z" fill="#262D33"/>
<path d="M111.258 19.2637C110.039 19.2637 108.977 18.998 108.07 18.4668C107.172 17.9277 106.473 17.1895 105.973 16.252C105.48 15.3145 105.234 14.2441 105.234 13.041V12.5723C105.234 11.3145 105.469 10.2012 105.938 9.23242C106.406 8.25586 107.066 7.49023 107.918 6.93555C108.777 6.37305 109.789 6.0957 110.953 6.10352C112.664 6.10352 113.973 6.60742 114.879 7.61523C115.785 8.61523 116.238 10.0215 116.238 11.834V13.6973H108.785L108.762 13.7676C108.824 14.6035 109.102 15.291 109.594 15.8301C110.086 16.3691 110.785 16.6387 111.691 16.6387C112.316 16.6387 112.898 16.5605 113.438 16.4043C113.984 16.2402 114.516 16.002 115.031 15.6895L115.957 17.7988C115.434 18.2207 114.773 18.5723 113.977 18.8535C113.188 19.127 112.281 19.2637 111.258 19.2637ZM108.809 11.4355H113.039V11.1309C113.039 10.3652 112.879 9.75977 112.559 9.31445C112.246 8.86133 111.73 8.63477 111.012 8.63477C110.324 8.63477 109.801 8.89648 109.441 9.41992C109.082 9.93555 108.859 10.5879 108.773 11.377L108.809 11.4355Z" fill="#262D33"/>
<path d="M123.258 19.2637C122.312 19.2637 121.43 19.1738 120.609 18.9941C119.797 18.8145 119.016 18.5566 118.266 18.2207L118.23 14.6348H120.609L121.066 16.4629C121.332 16.5957 121.621 16.7012 121.934 16.7793C122.254 16.8574 122.617 16.8965 123.023 16.8965C123.789 16.8965 124.328 16.7715 124.641 16.5215C124.953 16.2715 125.109 15.959 125.109 15.584C125.109 15.2324 124.941 14.9238 124.605 14.6582C124.27 14.3848 123.609 14.1465 122.625 13.9434C121.117 13.6309 120.008 13.1465 119.297 12.4902C118.594 11.834 118.242 10.9941 118.242 9.9707C118.242 9.27539 118.418 8.63477 118.77 8.04883C119.129 7.46289 119.672 6.99805 120.398 6.6543C121.133 6.30273 122.07 6.12695 123.211 6.12695C124.164 6.12695 125.035 6.2207 125.824 6.4082C126.621 6.58789 127.289 6.82617 127.828 7.12305L127.863 10.5918H125.496L125.133 8.92773C124.68 8.61523 124.109 8.45898 123.422 8.45898C122.828 8.45898 122.367 8.58398 122.039 8.83398C121.719 9.07617 121.559 9.38477 121.559 9.75977C121.559 10.0879 121.699 10.3848 121.98 10.6504C122.27 10.9082 122.898 11.1465 123.867 11.3652C125.438 11.7246 126.582 12.2051 127.301 12.8066C128.02 13.4004 128.379 14.2363 128.379 15.3145C128.379 16.4941 127.949 17.4473 127.09 18.1738C126.238 18.9004 124.961 19.2637 123.258 19.2637Z" fill="#262D33"/>
</svg>
